<svg xmlns="http://www.w3.org/2000/svg" viewBox="0 0 800 600" width="800" height="600">
  <!-- Background -->
  <defs>
    <linearGradient id="grad1" x1="0%" y1="0%" x2="100%" y2="100%">
      <stop offset="0%" style="stop-color:#f5f7fa;stop-opacity:1" />
      <stop offset="100%" style="stop-color:#e4e9f2;stop-opacity:1" />
    </linearGradient>
  </defs>
  
  <!-- Digital Brain Network -->
  <g transform="translate(400, 300)">
    <!-- Brain outline -->
    <path d="M0,-150 C120,-150 180,-80 180,0 C180,80 120,150 0,150 C-120,150 -180,80 -180,0 C-180,-80 -120,-150 0,-150 Z" fill="none" stroke="#6c63ff" stroke-width="3" opacity="0.7"/>
    
    <!-- Neural network nodes -->
    <circle cx="-100" cy="-80" r="15" fill="#6c63ff" opacity="0.8"/>
    <circle cx="100" cy="-80" r="15" fill="#6c63ff" opacity="0.8"/>
    <circle cx="-120" cy="0" r="15" fill="#6c63ff" opacity="0.8"/>
    <circle cx="120" cy="0" r="15" fill="#6c63ff" opacity="0.8"/>
    <circle cx="-80" cy="80" r="15" fill="#6c63ff" opacity="0.8"/>
    <circle cx="80" cy="80" r="15" fill="#6c63ff" opacity="0.8"/>
    <circle cx="0" cy="-100" r="15" fill="#6c63ff" opacity="0.8"/>
    <circle cx="0" cy="0" r="20" fill="#4a00e0" opacity="0.9"/>
    <circle cx="0" cy="100" r="15" fill="#6c63ff" opacity="0.8"/>
    
    <!-- Neural connections -->
    <line x1="-100" y1="-80" x2="0" y2="0" stroke="#6c63ff" stroke-width="2" opacity="0.6"/>
    <line x1="100" y1="-80" x2="0" y2="0" stroke="#6c63ff" stroke-width="2" opacity="0.6"/>
    <line x1="-120" y1="0" x2="0" y2="0" stroke="#6c63ff" stroke-width="2" opacity="0.6"/>
    <line x1="120" y1="0" x2="0" y2="0" stroke="#6c63ff" stroke-width="2" opacity="0.6"/>
    <line x1="-80" y1="80" x2="0" y2="0" stroke="#6c63ff" stroke-width="2" opacity="0.6"/>
    <line x1="80" y1="80" x2="0" y2="0" stroke="#6c63ff" stroke-width="2" opacity="0.6"/>
    <line x1="0" y1="-100" x2="0" y2="0" stroke="#6c63ff" stroke-width="2" opacity="0.6"/>
    <line x1="0" y1="100" x2="0" y2="0" stroke="#6c63ff" stroke-width="2" opacity="0.6"/>
    
    <!-- Additional connections -->
    <line x1="-100" y1="-80" x2="100" y2="-80" stroke="#6c63ff" stroke-width="1" opacity="0.4"/>
    <line x1="-120" y1="0" x2="120" y2="0" stroke="#6c63ff" stroke-width="1" opacity="0.4"/>
    <line x1="-80" y1="80" x2="80" y2="80" stroke="#6c63ff" stroke-width="1" opacity="0.4"/>
    
    <!-- Animated pulse effect -->
    <circle cx="0" cy="0" r="40" fill="none" stroke="#00d9ff" stroke-width="2" opacity="0.5">
      <animate attributeName="r" values="40;60;40" dur="3s" repeatCount="indefinite"/>
      <animate attributeName="opacity" values="0.5;0.2;0.5" dur="3s" repeatCount="indefinite"/>
    </circle>
    
    <!-- Digital elements -->
    <g transform="translate(-150, -120)">
      <rect x="0" y="0" width="40" height="10" rx="2" fill="#00d9ff" opacity="0.7"/>
      <rect x="0" y="15" width="30" height="10" rx="2" fill="#00d9ff" opacity="0.7"/>
      <rect x="0" y="30" width="20" height="10" rx="2" fill="#00d9ff" opacity="0.7"/>
    </g>
    
    <g transform="translate(110, -120)">
      <rect x="0" y="0" width="40" height="10" rx="2" fill="#00d9ff" opacity="0.7"/>
      <rect x="10" y="15" width="30" height="10" rx="2" fill="#00d9ff" opacity="0.7"/>
      <rect x="20" y="30" width="20" height="10" rx="2" fill="#00d9ff" opacity="0.7"/>
    </g>
    
    <g transform="translate(-150, 100)">
      <rect x="0" y="0" width="40" height="10" rx="2" fill="#00d9ff" opacity="0.7"/>
      <rect x="0" y="15" width="30" height="10" rx="2" fill="#00d9ff" opacity="0.7"/>
      <rect x="0" y="30" width="20" height="10" rx="2" fill="#00d9ff" opacity="0.7"/>
    </g>
    
    <g transform="translate(110, 100)">
      <rect x="0" y="0" width="40" height="10" rx="2" fill="#00d9ff" opacity="0.7"/>
      <rect x="10" y="15" width="30" height="10" rx="2" fill="#00d9ff" opacity="0.7"/>
      <rect x="20" y="30" width="20" height="10" rx="2" fill="#00d9ff" opacity="0.7"/>
    </g>
  </g>
  
  <!-- Floating particles -->
  <g>
    <circle cx="100" cy="100" r="3" fill="#6c63ff" opacity="0.6">
      <animate attributeName="cy" values="100;80;100" dur="4s" repeatCount="indefinite"/>
    </circle>
    <circle cx="700" cy="150" r="4" fill="#6c63ff" opacity="0.6">
      <animate attributeName="cy" values="150;130;150" dur="3s" repeatCount="indefinite"/>
    </circle>
    <circle cx="200" cy="500" r="5" fill="#6c63ff" opacity="0.6">
      <animate attributeName="cy" values="500;480;500" dur="5s" repeatCount="indefinite"/>
    </circle>
    <circle cx="600" cy="400" r="3" fill="#6c63ff" opacity="0.6">
      <animate attributeName="cy" values="400;380;400" dur="4.5s" repeatCount="indefinite"/>
    </circle>
    <circle cx="300" cy="200" r="4" fill="#00d9ff" opacity="0.6">
      <animate attributeName="cy" values="200;180;200" dur="3.5s" repeatCount="indefinite"/>
    </circle>
    <circle cx="500" cy="300" r="5" fill="#00d9ff" opacity="0.6">
      <animate attributeName="cy" values="300;280;300" dur="4.2s" repeatCount="indefinite"/>
    </circle>
  </g>
  
  <!-- Digital Alchemy text effect -->
  <g transform="translate(400, 500)">
    <text x="0" y="0" font-family="Arial" font-size="24" font-weight="bold" text-anchor="middle" fill="#4a00e0">Digital<tspan fill="#00d9ff">Alchemy</tspan></text>
    <rect x="-100" y="10" width="200" height="2" fill="url(#grad1)" opacity="0.7"/>
  </g>
</svg>
